<svg width="512" height="298" viewBox="0 0 512 298" fill="none" xmlns="http://www.w3.org/2000/svg">
<g clip-path="url(#clip0_146_1548)">
<path d="M352.281 212.059C351.21 209.518 263.252 37.225 261.81 34.8507C258.772 27.6589 254.267 21.1635 248.576 15.7701C242.884 10.3766 236.129 6.20088 228.732 3.50367C221.335 0.806457 213.455 -0.354322 205.584 0.0938114C197.712 0.541945 190.019 2.58937 182.984 6.10823C175.949 9.6271 169.724 14.5418 164.697 20.5455C159.67 26.5493 155.948 33.513 153.766 41.002C151.583 48.4909 150.986 56.3443 152.012 64.0716C153.037 71.7989 155.663 79.2343 159.726 85.9134C160.797 88.4539 244.986 253.364 246.427 255.738C247.5 258.287 248.76 260.755 250.197 263.122C253.235 270.314 257.74 276.809 263.432 282.203C269.123 287.596 275.878 291.772 283.275 294.469C290.672 297.166 298.552 298.327 306.424 297.878C314.295 297.43 321.988 295.383 329.023 291.864C336.058 288.345 342.283 283.43 347.31 277.427C352.337 271.423 356.058 264.459 358.241 256.97C360.423 249.481 361.021 241.628 359.995 233.901C358.97 226.173 356.344 218.738 352.281 212.059Z" fill="#173D33"/>
<path d="M250.705 95.475C256.098 89.7944 260.248 83.076 262.897 75.7391C265.546 68.4022 266.636 60.6043 266.1 52.8323C265.565 45.0602 263.414 37.4807 259.782 30.567C256.151 23.6532 251.117 17.5536 244.994 12.6488C238.871 7.74408 231.791 4.13947 224.197 2.06C216.602 -0.0194662 208.655 -0.529151 200.852 0.56276C193.049 1.65467 185.557 4.32474 178.845 8.4063C172.132 12.4879 166.343 17.8933 161.838 24.2852C159.946 26.2774 17.1249 200.266 15.5378 202.513C10.1451 208.193 5.99474 214.912 3.3459 222.249C0.697064 229.586 -0.393417 237.383 0.142525 245.156C0.678467 252.928 2.82933 260.507 6.46085 267.421C10.0924 274.335 15.1266 280.434 21.2493 285.339C27.372 290.244 34.4518 293.848 42.0466 295.928C49.6415 298.007 57.5885 298.517 65.3915 297.425C73.1945 296.333 80.6861 293.663 87.3986 289.581C94.1111 285.5 99.9005 280.094 104.405 273.702C106.297 271.71 249.118 97.7217 250.705 95.475Z" fill="#97D28B"/>
<path d="M496.469 95.4725C501.862 89.7919 506.012 83.0734 508.661 75.7365C511.31 68.3996 512.401 60.6018 511.865 52.8297C511.329 45.0576 509.178 37.4781 505.546 30.5643C501.915 23.6506 496.881 17.5509 490.758 12.6462C484.635 7.74139 477.556 4.13678 469.961 2.05731C462.366 -0.0221601 454.419 -0.531839 446.616 0.560086C438.813 1.65201 431.321 4.3221 424.609 8.40368C417.896 12.4853 412.107 17.8907 407.602 24.2827C405.711 26.2748 262.889 200.263 261.302 202.51C255.909 208.191 251.759 214.909 249.11 222.246C246.461 229.583 245.371 237.381 245.907 245.153C246.443 252.925 248.593 260.505 252.225 267.418C255.857 274.332 260.891 280.432 267.013 285.336C273.136 290.241 280.216 293.846 287.811 295.925C295.406 298.005 303.353 298.514 311.156 297.422C318.959 296.33 326.45 293.66 333.163 289.579C339.875 285.497 345.665 280.092 350.169 273.7C352.061 271.707 494.882 97.7192 496.469 95.4725Z" fill="#97D28B"/>
</g>
<defs>
<clipPath id="clip0_146_1548">
<rect width="512" height="298" fill="white"/>
</clipPath>
</defs>
</svg>
